<?xml version="1.0" encoding="UTF-8"?>
<svg id="Layer_2" data-name="Layer 2" xmlns="http://www.w3.org/2000/svg" viewBox="0 0 114.01 156.15">
  <defs>
    <style>
      .cls-1, .cls-2 {
        fill: #ffbf53;
      }

      .cls-1, .cls-3 {
        fill-rule: evenodd;
      }

      .cls-4, .cls-3 {
        fill: #1b2129;
      }
    </style>
  </defs>
  <g id="Layer_1-2">
    <g>
      <g>
        <path class="cls-1" d="m97.13,35.06c-.42-2.44-2.53-4.23-5.01-4.23H21.9c-2.48,0-4.6,1.79-5.01,4.23L1.14,127.39c-.53,3.11,1.86,5.94,5.01,5.94h24.46c1.97,0,3.56-1.59,3.56-3.56v-59.43c0-2.9,2.35-5.25,5.25-5.25h35.2c2.9,0,5.25,2.35,5.25,5.25v59.43c0,1.97,1.59,3.56,3.56,3.56h24.42c3.15,0,5.54-2.83,5.01-5.94l-15.75-92.33Z"/>
        <path class="cls-4" d="m38.67,47.83c0,2.51-2.03,4.55-4.54,4.55s-4.54-2.04-4.54-4.55,2.03-4.55,4.54-4.55,4.54,2.04,4.54,4.55Z"/>
        <path class="cls-4" d="m84.43,47.83c0,2.51-2.03,4.55-4.54,4.55s-4.54-2.04-4.54-4.55,2.03-4.55,4.54-4.55,4.54,2.04,4.54,4.55Z"/>
        <path class="cls-3" d="m32.22,24.78C32.22,11.1,43.32,0,57.01,0s24.78,11.1,24.78,24.78v22.49h-3.9v-22.49c0-11.53-9.35-20.88-20.88-20.88s-20.88,9.35-20.88,20.88v22.49h-3.9v-22.49Z"/>
        <path class="cls-1" d="m73.7,68.28h-33.4c-1.68,0-3.05,1.37-3.05,3.05v58.94c0,1.68,1.36,3.05,3.05,3.05h33.4c1.68,0,3.05-1.37,3.05-3.05v-58.94c0-1.68-1.37-3.05-3.05-3.05Zm-25.57,1.64h17.74c.45,0,.82.37.82.81s-.37.82-.82.82h-17.74c-.45,0-.81-.37-.81-.82s.37-.81.81-.81Zm26.43,58.09c0,1.68-1.37,3.05-3.05,3.05h-29.01c-1.68,0-3.05-1.36-3.05-3.05v-51.65c0-1.68,1.36-3.05,3.05-3.05h29.01c1.68,0,3.05,1.36,3.05,3.05v51.65Z"/>
        <path class="cls-3" d="m74.57,76.36v51.65c0,1.68-1.37,3.05-3.05,3.05h-29.01c-1.68,0-3.05-1.36-3.05-3.05v-51.65c0-1.68,1.36-3.05,3.05-3.05h29.01c1.68,0,3.05,1.36,3.05,3.05Z"/>
        <g>
          <path class="cls-2" d="m50.64,107.93c-1.69,0-3.07,1.39-3.07,3.1s1.38,3.1,3.07,3.1,3.07-1.39,3.07-3.1-1.38-3.1-3.07-3.1Zm0,5.03c-1.05,0-1.9-.87-1.9-1.93s.85-1.93,1.9-1.93,1.9.87,1.9,1.93-.85,1.93-1.9,1.93Z"/>
          <path class="cls-2" d="m59.33,107.93c-1.69,0-3.07,1.39-3.07,3.1s1.38,3.1,3.07,3.1,3.07-1.39,3.07-3.1-1.38-3.1-3.07-3.1Zm0,5.03c-1.05,0-1.9-.87-1.9-1.93s.85-1.93,1.9-1.93,1.9.87,1.9,1.93-.85,1.93-1.9,1.93Z"/>
          <path class="cls-2" d="m69.59,90.25h-3.61c-.28,0-.52.18-.62.44l-3.01,8.41-.45-.05s-.05,0-.07,0h-10.18c-.37,0-.67.3-.67.67h0c0,.37.3.67.67.67h10.25l-1.77,4.94h-11.49l-1.63-4.94h0l-.44-1.34h0l-.34-1.04-.87-2.64h10.26c.36,0,.66-.3.66-.67s-.3-.67-.66-.67h-11.18c-.21,0-.4.1-.53.27-.13.18-.16.4-.09.61l3.73,11.31c.09.27.34.46.62.46h12.42c.27,0,.52-.18.62-.44l5.24-14.64h3.15c.36,0,.66-.3.66-.67s-.29-.67-.66-.67Z"/>
        </g>
      </g>
      <g>
        <path class="cls-4" d="m5.93,155.98l-2.4-4.55h-1.15v4.55H0v-11.91h4.7c4.25,0,4.67,5.98,1.17,7l2.77,4.92h-2.7Zm-3.55-6.87h2.1c1.62,0,1.62-2.67,0-2.67h-2.1v2.67Z"/>
        <path class="cls-4" d="m14.16,143.64h.25l5.02,12.35h-2.68l-.48-1.28h-3.95l-.47,1.28h-2.7l5.02-12.35Zm1.22,8.83l-1.08-3.1-1.12,3.1h2.2Z"/>
        <path class="cls-4" d="m25.04,143.64h.25l5.02,12.35h-2.68l-.48-1.28h-3.95l-.47,1.28h-2.7l5.02-12.35Zm1.22,8.83l-1.08-3.1-1.12,3.1h2.2Z"/>
        <path class="cls-4" d="m31.97,144.05h4.72c2.12,0,3.43,1.52,3.38,3.62-.03.9-.35,1.83-1.1,2.35.78.53,1.23,1.45,1.23,2.38,0,2-1.58,3.58-3.52,3.58h-4.72v-11.93Zm2.4,4.78h2.12c.68,0,1.1-.55,1.1-1.2s-.42-1.2-1.1-1.2h-2.12v2.4Zm0,4.77h2.12c.68,0,1.2-.53,1.2-1.2s-.52-1.18-1.2-1.18h-2.12v2.38Z"/>
        <path class="cls-4" d="m44.28,155.98v-9.53h-2.97v-2.37h8.31v2.37h-2.97v9.53h-2.38Z"/>
        <path class="cls-4" d="m54.32,143.64h.25l5.02,12.35h-2.68l-.48-1.28h-3.95l-.47,1.28h-2.7l5.02-12.35Zm1.22,8.83l-1.08-3.1-1.12,3.1h2.2Z"/>
        <path class="cls-4" d="m65.73,152.72c1.37.97,2.85,1,3.4.95.7-.05,1.3-.55,1.23-1.2-.05-.68-.57-.98-1.23-1.22-1.87-.68-3.53-1.63-3.53-3.63s1.38-3.53,3.37-3.63c.62-.03,1.43-.03,2.97.5l-.3,2.3c-1.32-.53-2.07-.52-2.43-.5-.85.05-1.23.67-1.18,1.33.07.67.65.97,1.33,1.2,1.85.68,3.45,1.75,3.45,3.65s-1.37,3.5-3.6,3.62c-.67.05-2.15-.03-3.77-.87l.3-2.5Z"/>
        <path class="cls-4" d="m76.76,155.98v-9.53h-2.97v-2.37h8.31v2.37h-2.97v9.53h-2.38Z"/>
        <path class="cls-4" d="m89.26,143.87c8.2,0,8.2,12.28,0,12.28s-8.2-12.28,0-12.28Zm0,2.45c-4.77,0-4.77,7.36,0,7.36s4.77-7.36,0-7.36Z"/>
        <path class="cls-4" d="m103.57,155.98l-2.4-4.55h-1.15v4.55h-2.38v-11.91h4.7c4.25,0,4.67,5.98,1.17,7l2.77,4.92h-2.7Zm-3.55-6.87h2.1c1.62,0,1.62-2.67,0-2.67h-2.1v2.67Z"/>
        <path class="cls-4" d="m107.85,155.98v-11.91h5.96v2.38h-3.58v2.38h3.13v2.38h-3.13v2.38h3.78v2.38h-6.16Z"/>
      </g>
    </g>
  </g>
</svg>